<svg xmlns="http://www.w3.org/2000/svg" version="1.1" viewBox="-5.0 -10.0 110.0 135.0">
 <path d="m50 6.25c-24.125 0-43.75 19.625-43.75 43.75s19.625 43.75 43.75 43.75 43.75-19.625 43.75-43.75-19.625-43.75-43.75-43.75zm-5.4062 36.25c0.53125 2.5312 2.8125 4.375 5.4062 4.375 5.5 0 10.344 3.9062 11.531 9.2812 0.15625 0.8125 0.25 1.6562 0.25 2.5 0 5.4062-3.6875 9.9062-8.6562 11.312v5.0312c0 1.7188-1.4062 3.125-3.125 3.125s-3.125-1.4062-3.125-3.125v-5.0312c-4.9688-1.4062-8.6562-5.9062-8.6562-11.312 0-1.7188 1.4062-3.125 3.125-3.125s3.125 1.4062 3.125 3.125c0 3.0312 2.4688 5.5312 5.5312 5.5312s5.5312-2.5 5.5312-5.5312c0-0.40625-0.03125-0.8125-0.125-1.1562-0.53125-2.5312-2.8125-4.375-5.4062-4.375-5.5 0-10.344-3.9062-11.531-9.2812-0.15625-0.8125-0.25-1.6562-0.25-2.5 0-5.4062 3.6875-9.9062 8.6562-11.312v-5.0312c0-1.7188 1.4062-3.125 3.125-3.125s3.125 1.4062 3.125 3.125v5.0312c4.9688 1.4062 8.6562 5.9062 8.6562 11.312 0 1.7188-1.4062 3.125-3.125 3.125s-3.125-1.4062-3.125-3.125c0-3.0312-2.4688-5.5312-5.5312-5.5312s-5.5312 2.5-5.5312 5.5312c0 0.40625 0.03125 0.8125 0.125 1.1562z"/>
</svg>