<svg xmlns="http://www.w3.org/2000/svg" version="1.1" viewBox="-5.0 -10.0 110.0 135.0">
 <path d="m77.875 13.344c-0.75781-0.98438-1.8516-1.6133-3.082-1.7734l-8.875-1.1562c-0.13281-0.019531-0.26562-0.003906-0.39062 0.027344-0.24219-2.168-2.0625-3.8672-4.293-3.8672h-46.559c-2.3945 0-4.3438 1.9453-4.3438 4.3398v67.965c0 2.3945 1.9453 4.3438 4.3438 4.3438h15.934l37.773 10.078c0.33984 0.082031 0.68359 0.12109 1.0234 0.12109 0.78906 0 1.5703-0.21875 2.2578-0.64062 0.98828-0.60156 1.6797-1.5547 1.9531-2.6836l15.93-66.07c0.27344-1.1289 0.085937-2.293-0.51562-3.2812-0.60938-0.98828-1.5625-1.6836-2.6641-1.9492l-7.5625-2.0703c0.14062-1.2188-0.18359-2.4141-0.92969-3.3828zm-8.4492 3.6328c0.035157 0.007813 0.0625 0.019532 0.097657 0.023438-0.066407-0.24609-0.085938-0.50781-0.039063-0.77734 0.16797-1 1.1172-1.6719 2.1172-1.5039s1.6719 1.1172 1.5039 2.1172c-0.046875 0.26953-0.14844 0.50781-0.29297 0.72266 0.035156 0.003906 0.066406 0 0.10156 0.007812 1 0.16797 1.6719 1.1172 1.5039 2.1172s-1.1172 1.6719-2.1172 1.5039c-0.52734-0.09375-0.93359-0.40625-1.2031-0.8125 0.13281 1.1133 0.28125 1.8242 0.59766 2.2891 0.003907 0.019532 0.015626 0.039063 0.058594 0.085938 0.24609 0.25781-0.085937 0.22266-0.085937 0.22266l-2.8438-0.48047s-0.32422-0.078126-0.007813-0.23828c0.054688-0.027344 0.078125-0.046875 0.085938-0.0625 0.44531-0.33594 0.81641-0.94922 1.293-1.9531-0.38281 0.28516-0.86719 0.44141-1.3789 0.35156-1-0.16797-1.6719-1.1172-1.5039-2.1172 0.16406-0.99609 1.1133-1.668 2.1133-1.4961zm-3.8477-4.4648c0.023437 0.007812 0.042969 0.019531 0.070313 0.023437l-0.070313 0.007813zm-53.719 66.371v-67.969c0-1.5508 1.2617-2.8125 2.8164-2.8125h46.559c1.5508 0 2.8125 1.2617 2.8125 2.8125v67.965c0 1.5547-1.2617 2.8164-2.8125 2.8164h-26.754l-0.52344-0.074218c-0.20312-0.023438-0.38281 0.011718-0.54297 0.074218h-18.738c-1.5547 0-2.8164-1.2617-2.8164-2.8125zm75.867-57.344c0.39063 0.64063 0.50781 1.3984 0.33594 2.1289l-15.93 66.07c-0.17578 0.73047-0.625 1.3477-1.2656 1.7422-0.64453 0.39062-1.4062 0.50781-2.1094 0.33984l-24.789-6.6133 20.852 2.9727c0.20313 0.027343 0.40234 0.039062 0.60156 0.039062 2.3008 0 4.3047-1.7109 4.6055-4.043l8.5859-65.922 7.375 2.0234c0.72266 0.17188 1.3438 0.62109 1.7383 1.2617z"/>
 <path d="m80.781 26.555c-0.40625 0.69922-0.76953 1.2656-1.1523 1.543l0.007813 0.007813s-0.27344 0.17969-0.054688 0.23438l2.4609 0.60938c0.21484 0.054687 0.054687-0.23438 0.054687-0.23438h0.003906c-0.21094-0.42969-0.27344-1.1055-0.3125-1.918 0.94922 1.6016 3.3047 0.70312 2.9492-1.3555-0.26953-1.5391-1.7852-3.6328-2.1875-3.7891-0.42969-0.054688-2.7539 1.082-3.7109 2.3164-1.2852 1.6406 0.35547 3.5312 1.9414 2.5859z"/>
 <path d="m42.789 58.5s1.1172-0.074219 0.16016-0.77734c-0.16406-0.11719-0.22266-0.19531-0.24219-0.25-1.3008-1.3672-2.1914-3.6328-3.2422-7.2266 1.1133 1.1914 2.6328 1.9922 4.3984 1.9922 3.3906 0 6.1406-2.75 6.1406-6.1406s-2.75-6.1406-6.1406-6.1406c-0.11328 0-0.21875 0.027344-0.32812 0.035157 0.35547-0.77734 0.57031-1.6328 0.57031-2.5469 0-3.3906-2.75-6.1406-6.1406-6.1406s-6.1406 2.75-6.1406 6.1406c0 0.91406 0.21094 1.7695 0.57031 2.5469-0.11328-0.007813-0.21484-0.035157-0.32812-0.035157-3.3906 0-6.1406 2.75-6.1406 6.1406s2.75 6.1406 6.1406 6.1406c1.7344 0 3.2344-0.77344 4.3438-1.9336-1.0117 3.5703-1.8906 5.8047-3.1797 7.1641-0.015625 0.054688-0.070313 0.13281-0.24219 0.25781-0.96094 0.70313 0.16016 0.77734 0.16016 0.77734z"/>
 <path d="m53.77 18.641c0.59375 0 1.1055-0.26562 1.4883-0.66406-0.34766 1.2227-0.64844 1.9883-1.0859 2.4531-0.007813 0.019531-0.023437 0.042968-0.085937 0.085937-0.32813 0.24219 0.054687 0.26562 0.054687 0.26562h3.3047s0.38281-0.023438 0.054688-0.26562c-0.054688-0.039063-0.074219-0.066406-0.082031-0.085937-0.44531-0.46875-0.75-1.2422-1.1094-2.4766 0.38281 0.41016 0.90234 0.67969 1.5078 0.67969 1.1641 0 2.1016-0.94141 2.1016-2.1016 0-1.1641-0.94141-2.1016-2.1016-2.1016-0.039062 0-0.074218 0.007812-0.11328 0.011718 0.12109-0.26562 0.19531-0.55859 0.19531-0.87109 0-1.1641-0.94141-2.1016-2.1016-2.1016-1.1641 0-2.1016 0.94141-2.1016 2.1016 0 0.3125 0.070313 0.60547 0.19531 0.87109-0.035156 0-0.070313-0.007812-0.10938-0.007812-1.1641 0-2.1016 0.94141-2.1016 2.1016-0.011719 1.1641 0.92969 2.1055 2.0898 2.1055z"/>
</svg>